<svg xmlns="http://www.w3.org/2000/svg" width="102" height="102" viewBox="0 0 102 102"><title>icons/logo-green</title><g fill="none" fill-rule="evenodd"><path d="M51.412 100.985c-27.377 0-49.572-22.195-49.572-49.573m99.145.001c0 27.377-22.194 49.572-49.573 49.572m0-99.145c27.379 0 49.573 22.195 49.573 49.573m-99.145 0C1.84 24.035 24.034 1.84 51.412 1.84" stroke="#00492C" stroke-width="1.815"/><path fill="#00492C" d="M17.843 24.059v7.04h5.216v-7.04h3.702v18.124H23.06v-8.085h-5.216v8.085h-3.625V24.06zm15.568 4.433v8.58c0 1.199.105 1.825.287 2.19.182.364.704.626 1.226.626.86 0 1.902-.627 2.164-1.278v-9.387l3.338-.705v10.196c0 .886.287 1.8.808 2.425l-2.478 1.408a3.061 3.061 0 0 1-1.043-1.304c-.86.835-2.111 1.279-3.52 1.279-1.878 0-3.495-.887-3.938-2.165-.208-.6-.287-1.304-.287-2.66v-8.553l3.443-.652zm17.315 3.859v6.363c-.339.418-1.07.861-1.721.861-1.825 0-2.424-.94-2.424-3.807 0-2.973.677-4.278 2.241-4.278.626 0 1.252.288 1.904.861zm3.417-8.918l-3.469-.548v4.59c0 .782.052 1.696.104 1.983-.651-.523-1.408-.757-2.372-.757-3.391 0-5.711 2.868-5.711 7.04 0 4.147 2.138 6.78 5.527 6.78 1.2 0 2.218-.364 3.077-1.12.053.365.105.572.21.782h3.13c-.235-.522-.496-1.591-.496-4.877V23.433zm11.29 8.632c-1.33-.678-2.295-.965-3.285-.965-1.017 0-1.695.521-1.695 1.304 0 .678.443 1.042 1.668 1.355l1.618.418c1.641.418 2.19.913 2.66 1.512.495.626.73 1.382.73 2.27 0 2.762-2.295 4.64-5.712 4.64-1.643 0-3.442-.52-5.397-1.538l1.251-2.555c1.07.652 2.92 1.512 4.434 1.512.99 0 1.773-.652 1.773-1.512 0-.913-.652-1.383-2.06-1.643l-1.564-.287c-.887-.156-1.983-.782-2.452-1.355-.47-.575-.757-1.54-.757-2.4 0-2.608 2.06-4.355 5.164-4.355 2.14 0 3.546.652 4.77 1.252l-1.146 2.347zm8.891-.914c.628 0 1.175.261 1.514.705.47.599.705 1.773.705 3.572 0 3.157-.654 4.511-2.165 4.511-.679 0-1.462-.365-1.772-1.094-.289-.679-.446-1.826-.446-3.365 0-1.33.132-2.269.366-2.972.285-.835.966-1.357 1.798-1.357m-.051-2.581c-3.598 0-5.997 2.79-5.997 6.989 0 4.198 2.373 6.91 5.997 6.91 2.06 0 3.39-.704 4.406-1.852 1.148-1.304 1.67-2.868 1.67-5.163 0-2.164-.47-3.624-1.538-4.876-1.148-1.356-2.635-2.008-4.538-2.008m10.849-.078c.313.547.495 1.121.495 1.668.522-.364.965-.677 1.537-.99a5.511 5.511 0 0 1 2.4-.573c1.487 0 2.79.782 3.208 1.93.183.495.26 1.068.26 1.903v9.753H89.58v-8.685c0-1.512-.26-1.955-1.173-1.955-.705 0-1.617.47-2.424 1.199v9.44h-3.497v-9.674c0-1.148-.156-2.243-.469-3.129l3.105-.887zM31.77 46.225l2.999 9.44c.235.808.548 1.825.836 3.155.234-1.122.703-2.634 1.043-3.625l3.076-8.97h3.833l-6.31 18.254h-3.311L27.78 46.225h3.99zm17.705 12.282l-.052 2.869c-.523.574-1.174.912-1.826.912-.887 0-1.54-.704-1.54-1.747 0-1.59.836-2.034 3.261-2.034h.157zm-6.86-5.92l1.487 2.504c1.435-.964 2.738-1.512 3.86-1.512 1.277 0 1.564.495 1.564 1.981v.548c-.287-.026-.52-.026-.782-.026-4.25 0-6.415 1.46-6.415 4.59 0 2.66 1.617 4.171 4.59 4.171 1.094 0 2.034-.26 2.686-.73.26-.182.546-.443.808-.704.34.678 1.07 1.279 1.878 1.618l1.851-2.14c-1.017-.756-1.252-1.303-1.252-2.737v-.234l.077-4.486c.028-1.434-.05-1.85-.233-2.4-.522-1.485-2.06-2.32-4.303-2.32-1.226 0-2.347.235-3.65.782-.94.391-1.461.652-2.166 1.096zm16.872-4.067v10.404c0 2.295.026 2.608.236 2.973.13.234.416.365.704.365.129 0 .207 0 .39-.052l.6 2.086c-.6.235-1.33.366-2.086.366-1.486 0-2.686-.705-3.103-1.826-.261-.678-.312-1.096-.312-3v-9.961c0-1.747-.053-2.815-.184-4.016l3.574-.808c.13.73.181 1.591.181 3.468m7.38.001v10.404c0 2.295.026 2.608.236 2.973.13.234.416.365.703.365.13 0 .208 0 .392-.052l.6 2.086c-.6.235-1.332.366-2.088.366-1.485 0-2.684-.705-3.103-1.826-.26-.678-.312-1.096-.312-3v-9.961c0-1.747-.052-2.815-.183-4.016l3.573-.808c.13.73.182 1.591.182 3.468m6.938 7.693v-.052c0-1.852.755-2.894 2.086-2.894.703 0 1.199.26 1.538.782.314.496.417 1.017.417 2.008v.156h-4.041zm6.153 4.563c-1.07.887-2.19 1.33-3.39 1.33-1.8 0-2.817-1.173-2.817-3.233v-.104h7.72v-.808c0-2.791-.548-4.59-1.773-5.842-.861-.886-2.323-1.408-3.861-1.408-1.773 0-3.102.574-4.196 1.8-1.175 1.303-1.672 2.894-1.672 5.293 0 4.198 2.48 6.91 6.311 6.91 1.88 0 3.494-.6 5.034-1.85l-1.356-2.088zm5.293-9.987l2.322 7.798c.235.808.705 2.763.705 2.763s.26-1.486.418-2.138c.101-.443.31-1.225.518-1.851l2.01-6.363H94.9l-4.849 13.56c-.914 2.582-1.592 3.704-2.558 4.407-.885.652-2.032 1.069-3.232 1.226l-1.199-2.294c.756-.21 1.642-.522 2.164-.887.39-.287.703-.653.99-1.096.339-.548.443-.782.756-1.564h-.886c-.417-1.252-1.122-3.338-1.25-3.756l-3.157-9.387 3.572-.418zM22.483 69.407c-.48-.356-.985-.534-1.52-.534-.643 0-1.274.315-1.616.82-.37.549-.534 1.343-.534 2.453 0 1.3.11 2.026.398 2.545.383.7 1.013 1.069 1.834 1.069.563 0 1.069-.165 1.63-.616l.876 1.204c-.754.616-1.56.89-2.643.89-1.314 0-2.327-.425-3.108-1.315-.766-.862-1.149-2.012-1.149-3.409 0-1.19.206-2.135.643-2.957.74-1.383 2.109-2.204 3.641-2.204.946 0 1.89.301 2.41.754l-.862 1.3zm4.503 1.876c.33 0 .617.137.795.37.245.314.37.93.37 1.874 0 1.658-.342 2.37-1.137 2.37-.355 0-.766-.193-.93-.575-.152-.357-.234-.96-.234-1.767 0-.698.07-1.19.192-1.56.152-.439.507-.712.944-.712m-.025-1.356c-1.89 0-3.15 1.465-3.15 3.669 0 2.205 1.245 3.629 3.15 3.629 1.081 0 1.778-.37 2.313-.972.601-.685.875-1.506.875-2.71 0-1.138-.247-1.904-.807-2.562-.603-.71-1.382-1.053-2.381-1.053m5.721.012c.124.192.178.357.247.713a2.418 2.418 0 0 1 1.71-.712c.576 0 1.055.191 1.425.576.096.094.19.218.273.341.644-.657 1.22-.917 1.986-.917.548 0 1.067.164 1.383.439.398.341.519.751.519 1.71v4.984h-1.778v-4.628c0-.835-.097-1-.576-1-.342 0-.821.234-1.22.59v5.038h-1.737v-4.56c0-.875-.123-1.08-.63-1.08-.343 0-.808.177-1.205.533v5.107h-1.794v-4.888c0-1.013-.068-1.45-.26-1.793l1.657-.452zm10.568 0c.125.192.18.357.247.713.48-.465 1.069-.712 1.712-.712.575 0 1.054.191 1.424.576.096.094.192.218.273.341.646-.657 1.219-.917 1.985-.917.549 0 1.069.164 1.383.439.397.341.52.751.52 1.71v4.984h-1.78v-4.628c0-.835-.095-1-.574-1-.342 0-.822.234-1.219.59v5.038h-1.739v-4.56c0-.875-.123-1.08-.63-1.08-.341 0-.807.177-1.204.533v5.107h-1.794v-4.888c0-1.013-.068-1.45-.26-1.793l1.657-.452zm10.816-.054v4.504c0 .63.056.958.151 1.151.096.19.37.328.644.328.452 0 .999-.328 1.136-.671V70.27l1.753-.37v5.353c0 .465.15.946.425 1.273l-1.301.74a1.595 1.595 0 0 1-.549-.685c-.451.438-1.109.671-1.848.671-.986 0-1.835-.466-2.067-1.137-.11-.315-.15-.684-.15-1.396v-4.49l1.806-.343zm6.737 0c.164.288.26.588.26.876.274-.191.505-.355.807-.52.37-.192.848-.3 1.26-.3.78 0 1.465.41 1.685 1.013.094.26.135.56.135.998v5.12h-1.808v-4.559c0-.793-.136-1.027-.615-1.027-.369 0-.85.247-1.273.631v4.956h-1.835v-5.08c0-.601-.081-1.177-.246-1.642l1.63-.466zm7.597.014v7.174h-1.834v-6.886L68.4 69.9zm.22-1.767c0 .63-.508 1.137-1.136 1.137a1.131 1.131 0 0 1-1.123-1.137c0-.63.52-1.135 1.15-1.135.616 0 1.108.506 1.108 1.135zm4.312 3.191h-1.177v3.518c0 .89.163 1.122.794 1.122.164 0 .328-.04.657-.137l.232 1.096a3.841 3.841 0 0 1-1.491.315c-.93 0-1.67-.41-1.89-1.027-.11-.301-.123-.438-.123-1.082v-3.805h-.697v-1.26h.697c0-.685 0-1.137.068-1.656l1.862-.467a21.116 21.116 0 0 0-.109 2.123h1.642l-.465 1.26z"/><path d="M75.177 69.955l1.218 4.094c.124.423.37 1.45.37 1.45s.137-.78.22-1.121c.054-.234.163-.645.274-.973l1.053-3.341h1.93l-2.545 7.12c-.48 1.355-.836 1.944-1.342 2.312-.466.344-1.069.562-1.697.645l-.63-1.205c.397-.11.861-.275 1.136-.466.205-.15.37-.341.52-.575.178-.287.233-.41.398-.82h-.467c-.218-.657-.589-1.753-.657-1.973l-1.656-4.929 1.875-.218zM39.321 81.142c-.48-.356-.984-.534-1.52-.534-.643 0-1.273.315-1.615.82-.369.549-.533 1.343-.533 2.453 0 1.299.109 2.025.398 2.545.383.698 1.013 1.069 1.833 1.069.562 0 1.069-.164 1.629-.616l.876 1.203c-.751.617-1.56.89-2.641.89-1.314 0-2.329-.424-3.11-1.314-.766-.863-1.15-2.012-1.15-3.409 0-1.19.207-2.135.644-2.957.74-1.383 2.11-2.204 3.642-2.204.946 0 1.89.301 2.41.753l-.863 1.3zm4.505 1.876a.98.98 0 0 1 .793.369c.248.315.37.93.37 1.875 0 1.657-.342 2.37-1.136 2.37-.356 0-.767-.192-.93-.576-.152-.356-.234-.959-.234-1.766 0-.698.068-1.19.191-1.56.151-.438.508-.712.946-.712m-.028-1.356c-1.889 0-3.149 1.465-3.149 3.669 0 2.204 1.246 3.628 3.15 3.628 1.08 0 1.779-.37 2.313-.972.602-.684.876-1.506.876-2.71 0-1.137-.246-1.904-.808-2.56-.602-.712-1.383-1.055-2.382-1.055m6.079-1.164v5.462c0 1.206.014 1.37.123 1.562.069.123.22.192.37.192.068 0 .109 0 .205-.028l.316 1.096c-.316.123-.7.19-1.097.19-.78 0-1.41-.369-1.63-.957-.135-.356-.162-.575-.162-1.574v-5.23c0-.917-.03-1.48-.096-2.109l1.875-.424c.068.383.096.834.096 1.82m3.874 0v5.462c0 1.206.014 1.37.124 1.562.067.123.217.192.37.192.067 0 .108 0 .205-.028l.314 1.096c-.314.123-.698.19-1.096.19-.78 0-1.41-.369-1.629-.957-.136-.356-.163-.575-.163-1.574v-5.23c0-.917-.028-1.48-.097-2.109l1.876-.424c.069.383.096.834.096 1.82m3.643 4.039v-.027c0-.972.396-1.52 1.094-1.52.37 0 .629.137.808.411.163.26.218.534.218 1.054v.082h-2.12zm3.23 2.395c-.56.466-1.15.7-1.78.7-.945 0-1.478-.617-1.478-1.699v-.054h4.052v-.424c0-1.465-.288-2.41-.93-3.067-.453-.465-1.22-.74-2.028-.74-.93 0-1.628.302-2.204.945-.616.684-.876 1.52-.876 2.78 0 2.204 1.3 3.627 3.314 3.627.986 0 1.835-.315 2.641-.972l-.712-1.096zm4.518-3.914c.697 0 1.11.383 1.11 1.04 0 .644-.398 1-1.125 1-.642 0-1.08-.289-1.08-1 0-.657.396-1.04 1.095-1.04zm3.587-1.617c-.425.384-.944.604-1.452.604-.233 0-.478-.055-.862-.151-.507-.124-.863-.178-1.26-.178-1.794 0-2.957.931-2.957 2.368 0 1.04.493 1.685 1.506 1.944-1.15.302-1.286.726-1.286 1.178 0 .478.205.794.533.916.328.137.861.207 1.685.22l.78.014c.726.014 1.286.204 1.286.835 0 .287-.178.547-.45.712-.289.178-.686.232-1.152.232-.849 0-1.314-.3-1.314-.862a.97.97 0 0 1 .083-.452H62.17c-.069.138-.165.328-.165.712 0 .48.192.89.576 1.246.63.589 1.656.753 2.655.753 1.096 0 2.15-.246 2.766-.903.383-.412.561-.863.561-1.451 0-.63-.191-1.11-.602-1.494-.493-.45-1.053-.615-2.123-.63l-.985-.013c-.192 0-.3-.069-.3-.164 0-.193.26-.356.723-.575.138.013.193.013.275.013 1.492 0 2.587-.876 2.587-2.08a1.69 1.69 0 0 0-.41-1.15c.11.013.301.041.479.041.507 0 .89-.15 1.288-.521l-.767-1.164zm2.655 3.136v-.027c0-.972.397-1.52 1.097-1.52.369 0 .628.137.807.411.163.26.219.534.219 1.054v.082h-2.123zm3.23 2.395c-.56.466-1.148.7-1.78.7-.944 0-1.477-.617-1.477-1.699v-.054h4.053v-.424c0-1.465-.287-2.41-.932-3.067-.452-.465-1.22-.74-2.027-.74-.93 0-1.627.302-2.204.945-.616.684-.875 1.52-.875 2.78 0 2.204 1.3 3.627 3.312 3.627.987 0 1.837-.315 2.643-.972l-.713-1.096zM19.301 50.885c-.17.784-.63 1.775-1.475 2.804-.622.758-2.056 2.493-2.498 4.017-.337 1.166-.571 2.35.06 4.19.49 1.423 1.28 2.002 2.226 2.67.387.275.553.326.704.22.054-.039-.018-.4-.04-.53-.08-.482-.124-1.778-.087-2.422.072-1.216.604-2.488 1.298-3.614.603-.974 2.041-3.352 2.358-4.866.329-1.567.505-3.435-.238-4.78-.423-.768-.996-1.433-1.863-1.79-.303-.124-.55-.136-.65-.057-.156.122-.086.256.01.47.308.688.582 1.903.195 3.688" fill="#00492C"/><path d="M22.902 50.386c-.17.052-.2.186-.203.339-.02 1.215-.177 2.432-.354 3.092-.474 1.776-1.134 2.909-1.724 3.833-.53.824-1.63 2.487-1.774 4.456-.09 1.195.155 2.548.24 2.844.119.405.822.525.822.525s.373.08.906.092c.543.013.995-.173.995-.173s.13-.087.13-.258c0-.173-.239-1.7-.137-2.73.12-1.21.49-2.385.871-3.436.188-.521 1.006-2.363 1.297-3.99.234-1.31.012-3.68-.669-4.36-.108-.11-.285-.267-.4-.234" fill="#00492C"/><path d="M24.684 53.878c-.04.073-.01.234-.02.376-.072 1.238-.461 2.538-.816 3.452-.331.855-.91 2.275-1.217 3.844-.269 1.37-.203 2.514-.04 3.253.044.194.093.333.158.375.065.044.097.04.293.034.328-.008 1.195-.477 1.524-.701 1.042-.71 2.105-2.09 2.283-3.572.19-1.59-.025-3.098-.345-4.153-.313-1.032-.913-2.31-1.429-2.9-.225-.261-.39-.008-.39-.008" fill="#00492C"/></g></svg>